<svg id="Layer_1" data-name="Layer 1" xmlns="http://www.w3.org/2000/svg" viewBox="0 0 165 34"><defs><style>.cls-1{fill:#8b939e;}.cls-2{fill:#fff;}</style></defs><title>btn_feedback</title><rect class="cls-1" width="165" height="34"/><g id="chevron_-medium" data-name="chevron -medium"><path class="cls-2" d="M140.84,26.83l9.88-10-9.86-9.9,1-1,10.77,10.9-10.77,11Z"/></g><path class="cls-2" d="M41.76,9.8H40.39V8.5h7.86c.9,0,1.26.38,1.26,1.28v1.47H48.14v-1a.42.42,0,0,0-.46-.47H43.23v5.55h5.35v1.3H43.23v6.61H41.76Z"/><path class="cls-2" d="M55.93,12.45c2.92,0,4.43,2.25,4.43,4.87,0,.25,0,.72,0,.72h-8.1a4,4,0,0,0,4.09,4.19,4.71,4.71,0,0,0,3.17-1.3L60.17,22a6,6,0,0,1-3.92,1.51A5.34,5.34,0,0,1,50.73,18,5.16,5.16,0,0,1,55.93,12.45Zm3,4.45c-.08-2.18-1.42-3.25-3-3.25a3.63,3.63,0,0,0-3.63,3.25Z"/><path class="cls-2" d="M67.44,12.45c2.92,0,4.43,2.25,4.43,4.87,0,.25,0,.72,0,.72H63.72a4,4,0,0,0,4.1,4.19A4.71,4.71,0,0,0,71,20.93L71.68,22a6,6,0,0,1-3.92,1.51A5.35,5.35,0,0,1,62.23,18,5.17,5.17,0,0,1,67.44,12.45Zm3,4.45c-.08-2.18-1.43-3.25-3-3.25a3.62,3.62,0,0,0-3.63,3.25Z"/><path class="cls-2" d="M78.53,12.45a3.72,3.72,0,0,1,3.44,2h0a7.84,7.84,0,0,1,0-.8V10.2a.42.42,0,0,0-.46-.46h-.88V8.5h1.49c.9,0,1.28.38,1.28,1.28V21.56a.41.41,0,0,0,.46.46h.88v1.24H83.27c-.88,0-1.26-.4-1.26-1.17a4.06,4.06,0,0,1,0-.67h0a3.82,3.82,0,0,1-3.63,2.09c-2.83,0-4.6-2.26-4.6-5.54S75.76,12.45,78.53,12.45ZM82,18c0-2.14-1.09-4.24-3.36-4.24-1.86,0-3.4,1.57-3.4,4.24s1.37,4.26,3.34,4.26C80.35,22.23,82,21,82,18Z"/><path class="cls-2" d="M87,10.2a.42.42,0,0,0-.46-.46h-.88V8.5h1.49c.9,0,1.28.38,1.28,1.28V13.6c0,.49,0,.86,0,.86h0a3.82,3.82,0,0,1,3.59-2c2.84,0,4.6,2.27,4.6,5.54s-2,5.52-4.77,5.52a3.84,3.84,0,0,1-3.46-2h0a8.38,8.38,0,0,1,0,.86v.92H87Zm4.75,12.05c1.87,0,3.4-1.57,3.4-4.26s-1.39-4.24-3.34-4.24C90.06,13.75,88.4,15,88.4,18,88.4,20.13,89.49,22.25,91.76,22.25Z"/><path class="cls-2" d="M104.72,16.75h.58v-.12c0-2.21-.79-3-2.73-3-.52,0-2,.14-2,.92v.67H99.15v-1c0-1.47,2.52-1.78,3.45-1.78,3.33,0,4.13,1.78,4.13,4.05v5.06a.41.41,0,0,0,.46.46h.89v1.24h-1.45c-.91,0-1.26-.4-1.26-1.26,0-.46,0-.77,0-.77h0a3.75,3.75,0,0,1-3.51,2.28c-1.76,0-3.59-1-3.59-3.12C98.25,16.88,102.89,16.75,104.72,16.75Zm-2.65,5.55c2,0,3.23-2.1,3.23-3.93v-.48h-.61c-1.65,0-5,0-5,2.41A2.1,2.1,0,0,0,102.07,22.3Z"/><path class="cls-2" d="M114.92,12.45c1.2,0,3.76.5,3.76,2.25v.94h-1.34V15c0-.88-1.54-1.3-2.42-1.3A4,4,0,0,0,110.83,18,4,4,0,0,0,115,22.21a4.68,4.68,0,0,0,3.41-1.49l.67,1.07a5.59,5.59,0,0,1-4.14,1.72A5.34,5.34,0,0,1,109.36,18,5.4,5.4,0,0,1,114.92,12.45Z"/><path class="cls-2" d="M121.31,10.2a.42.42,0,0,0-.47-.46H120V8.5h1.49c.91,0,1.28.32,1.28,1.22v7h1.1a1.49,1.49,0,0,0,1.19-.5l2.71-3.53h1.74l-3,3.86c-.53.66-.8.76-.8.76v0a1.74,1.74,0,0,1,.65.78l1.91,3.42c.19.36.4.46,1,.46h.57v1.24h-1a1.62,1.62,0,0,1-1.83-1.05l-2.1-3.78A1.16,1.16,0,0,0,123.7,18h-1v5.29h-1.42Z"/></svg>