<svg xmlns="http://www.w3.org/2000/svg" viewBox="0 0 34 34"><defs><style>.cls-1{fill:#00a9e0;}.cls-2{fill:#fff;}</style></defs><title>chevron_grey_right copy 2</title><g id="Design"><rect class="cls-1" x="0.02" width="34" height="34"/><path id="twitter_logo" data-name="twitter logo" class="cls-2" d="M12.78,26.48A14.27,14.27,0,0,0,27.15,12.11c0-.22,0-.44,0-.66a10.25,10.25,0,0,0,2.52-2.61,10.08,10.08,0,0,1-2.9.8A5.14,5.14,0,0,0,29,6.84a10,10,0,0,1-3.21,1.23,5.05,5.05,0,0,0-8.6,4.6A14.33,14.33,0,0,1,6.75,7.4a5.05,5.05,0,0,0,1.56,6.74A5.1,5.1,0,0,1,6,13.51v.06a5.05,5.05,0,0,0,4.05,4.95,5.16,5.16,0,0,1-2.28.09,5.06,5.06,0,0,0,4.72,3.5,10.13,10.13,0,0,1-6.27,2.17A9.66,9.66,0,0,1,5,24.21a14.24,14.24,0,0,0,7.74,2.26"/></g></svg>