<svg xmlns="http://www.w3.org/2000/svg" viewBox="0 0 34 34"><defs><style>.cls-1{fill:#0071bc;}.cls-2{fill:#fff;fill-rule:evenodd;}</style></defs><title>chevron_grey_right copy</title><g id="Design"><rect class="cls-1" width="34" height="34"/><g id="linked-in_logo" data-name="linked-in logo"><path class="cls-2" d="M10.92,26V11.54H6.11V26ZM8.51,9.56a2.51,2.51,0,1,0,0-5,2.51,2.51,0,1,0-.07,5Z"/><path class="cls-2" d="M13.58,26h4.8V17.92a3.45,3.45,0,0,1,.16-1.17A2.64,2.64,0,0,1,21,15c1.74,0,2.44,1.33,2.44,3.27V26h4.8V17.71c0-4.45-2.37-6.51-5.53-6.51a4.81,4.81,0,0,0-4.37,2.43h0V11.54h-4.8c.06,1.35,0,14.46,0,14.46Z"/></g></g></svg>