<?xml version="1.0" encoding="utf-8"?>
<!-- Generator: Adobe Illustrator 24.0.1, SVG Export Plug-In . SVG Version: 6.00 Build 0)  -->
<svg version="1.1" id="Layer_1" xmlns="http://www.w3.org/2000/svg" xmlns:xlink="http://www.w3.org/1999/xlink" x="0px" y="0px"
	 viewBox="0 0 20 20" style="enable-background:new 0 0 20 20;" xml:space="preserve">
<style type="text/css">
	.st0{fill:#ADB2B9;}
</style>
<path class="st0" d="M19.2,18.3l-5.6-5.5c2.6-3.3,2.3-7.9-0.9-10.7S4.9-0.1,2.2,3S-0.1,10.9,3,13.6c2.8,2.4,6.8,2.4,9.7,0l5.5,5.5
	c0.1,0.1,0.4,0.3,0.6,0.3c0.1,0,0.3-0.1,0.4-0.3C19.3,19,19.5,18.6,19.2,18.3z M1.8,7.9c0-3.4,2.8-6.1,6.1-6.1s6.1,2.8,6.1,6.1
	s-2.8,6.1-6.1,6.1S1.8,11.3,1.8,7.9z"/>
</svg>
